<?xml version="1.0" encoding="UTF-8"?>
<svg width="54px" height="24px" viewBox="0 0 54 24" version="1.1" xmlns="http://www.w3.org/2000/svg" xmlns:xlink="http://www.w3.org/1999/xlink">
    <!-- Generator: Sketch 47.1 (45422) - http://www.bohemiancoding.com/sketch -->
    <title>Bolt (Black)</title>
    <desc>Created with Sketch.</desc>
    <defs></defs>
    <g id="ðŸŒ-Desktop-&amp;-Mobile" stroke="none" stroke-width="1" fill="none" fill-rule="evenodd">
        <g id="1)-Home-(New-User)-Copy-27" transform="translate(-26.000000, -22.000000)" fill="#000000">
            <g id="Bolt-(Black)" transform="translate(26.000000, 22.000000)">
                <path d="M0.0506496815,23.4392523 L0.0506496815,0.054728972 L4.31607643,0.054728972 L4.31607643,9.29226168 C4.68509739,8.73240842 5.28746079,8.23177791 6.12318471,7.79035514 C6.95890864,7.34893237 7.97370104,7.1282243 9.16759236,7.1282243 C10.3397766,7.1282243 11.3817024,7.33816612 12.2934013,7.75805607 C13.2051001,8.17794602 13.9811178,8.75932339 14.6214777,9.50220561 C15.2618376,10.2450878 15.7448137,11.122537 16.0704204,12.1345794 C16.3960271,13.1466219 16.558828,14.2447791 16.558828,15.4290841 C16.558828,16.6349219 16.379747,17.7492285 16.0215796,18.7720374 C15.6634122,19.7948462 15.1533027,20.6830617 14.4912357,21.4367103 C13.8291687,22.1903589 13.0314442,22.7771194 12.0980382,23.1970093 C11.1646323,23.6168993 10.1335598,23.8268411 9.00478981,23.8268411 C7.89772695,23.8268411 6.93720152,23.6115162 6.12318471,23.1808598 C5.3091679,22.7502035 4.68509771,22.1903586 4.25095541,21.5013084 L4.25095541,23.4392523 L0.0506496815,23.4392523 Z M12.2282803,15.4613832 C12.2282803,13.9971516 11.8429847,12.8828449 11.0723822,12.1184299 C10.3017796,11.3540149 9.36296095,10.9718131 8.25589809,10.9718131 C7.71322022,10.9718131 7.19768397,11.0687093 6.70927389,11.2625047 C6.2208638,11.4563 5.79758141,11.7416056 5.43941401,12.1184299 C5.08124662,12.4952542 4.79363166,12.963586 4.57656051,13.5234393 C4.35948936,14.0832925 4.25095541,14.7292674 4.25095541,15.4613832 C4.25095541,16.1719662 4.35948936,16.8071748 4.57656051,17.367028 C4.79363166,17.9268813 5.08124662,18.4005962 5.43941401,18.7881869 C5.79758141,19.1757776 6.2208638,19.4718494 6.70927389,19.6764112 C7.19768397,19.880973 7.71322022,19.9832523 8.25589809,19.9832523 C9.36296095,19.9832523 10.3017796,19.5956674 11.0723822,18.820486 C11.8429847,18.0453045 12.2282803,16.9256148 12.2282803,15.4613832 Z M25.2063567,20.0155514 C25.7273274,20.0155514 26.237437,19.9186552 26.7367006,19.7248598 C27.2359643,19.5310645 27.6701001,19.2457589 28.039121,18.8689346 C28.408142,18.4921103 28.7066103,18.0237785 28.934535,17.4639252 C29.1624597,16.904072 29.2764204,16.2473309 29.2764204,15.4936822 C29.2764204,14.7400336 29.1624597,14.0832925 28.934535,13.5234393 C28.7066103,12.963586 28.408142,12.4952542 28.039121,12.1184299 C27.6701001,11.7416056 27.2359643,11.4563 26.7367006,11.2625047 C26.237437,11.0687093 25.7273274,10.9718131 25.2063567,10.9718131 C24.6853859,10.9718131 24.1752764,11.0687093 23.6760127,11.2625047 C23.1767491,11.4563 22.7426133,11.7416056 22.3735924,12.1184299 C22.0045714,12.4952542 21.7061031,12.963586 21.4781783,13.5234393 C21.2502536,14.0832925 21.136293,14.7400336 21.136293,15.4936822 C21.136293,16.2473309 21.2502536,16.904072 21.4781783,17.4639252 C21.7061031,18.0237785 22.0045714,18.4921103 22.3735924,18.8689346 C22.7426133,19.2457589 23.1767491,19.5310645 23.6760127,19.7248598 C24.1752764,19.9186552 24.6853859,20.0155514 25.2063567,20.0155514 Z M25.2063567,7.06362617 C26.400248,7.06362617 27.512721,7.27356799 28.5438089,7.69345794 C29.5748969,8.11334789 30.4648752,8.69472526 31.2137707,9.43760748 C31.9626662,10.1804897 32.5487495,11.0687051 32.9720382,12.1022804 C33.395327,13.1358556 33.6069682,14.2663116 33.6069682,15.4936822 C33.6069682,16.7210529 33.395327,17.8461257 32.9720382,18.8689346 C32.5487495,19.8917434 31.9626662,20.7799588 31.2137707,21.5336075 C30.4648752,22.2872561 29.5748969,22.8740166 28.5438089,23.2939065 C27.512721,23.7137965 26.400248,23.9237383 25.2063567,23.9237383 C24.0124654,23.9237383 22.8999924,23.7137965 21.8689045,23.2939065 C20.8378165,22.8740166 19.9478381,22.2872561 19.1989427,21.5336075 C18.4500472,20.7799588 17.8639639,19.8917434 17.4406752,18.8689346 C17.0173864,17.8461257 16.8057452,16.7210529 16.8057452,15.4936822 C16.8057452,14.2663116 17.0173864,13.1358556 17.4406752,12.1022804 C17.8639639,11.0687051 18.4500472,10.1804897 19.1989427,9.43760748 C19.9478381,8.69472526 20.8378165,8.11334789 21.8689045,7.69345794 C22.8999924,7.27356799 24.0124654,7.06362617 25.2063567,7.06362617 Z M33.8489108,23.4392523 L33.8489108,0.054728972 L38.1794586,0.054728972 L38.1794586,23.4392523 L33.8489108,23.4392523 Z M45.6217962,7.54811215 L48.8452866,7.54811215 L48.8452866,11.3594019 L45.6217962,11.3594019 L45.6217962,18.0130093 C45.6217962,18.7020595 45.7791704,19.1811575 46.0939236,19.4503178 C46.4086767,19.719478 46.8807994,19.8540561 47.5103057,19.8540561 C47.7707911,19.8540561 48.0312726,19.8432898 48.291758,19.821757 C48.5522433,19.8002242 48.7367511,19.7679254 48.8452866,19.7248598 L48.8452866,23.277757 C48.6499226,23.3638883 48.3514542,23.4500183 47.9498726,23.5361495 C47.548291,23.6222808 47.0327547,23.6653458 46.4032484,23.6653458 C44.8403361,23.6653458 43.6030491,23.2346959 42.6913503,22.3733832 C41.7796515,21.5120705 41.3238089,20.3062507 41.3238089,18.7558879 L41.3238089,11.3594019 L38.1798119,11.3594019 L38.1798119,7.54811215 L39.2399363,7.54811215 C40.0865138,7.54811215 40.710584,7.30587158 41.1121656,6.82138318 C41.5137472,6.33689477 41.714535,5.73936804 41.714535,5.02878505 L41.714535,2.80014953 L45.6217962,2.80014953 L45.6217962,7.54811215 Z" id="Bolt"></path>
                <path d="M38.1794586,7.46311215 L48.8500652,7.46311215 L48.8500652,11.4374186 L38.1794586,11.4374186 L38.1794586,7.46311215 Z M53.1801606,9.45420552 L48.8500652,12.908411 L48.8500652,6 L53.1801606,9.45420552 Z" id="Yellow-Cross"></path>
            </g>
        </g>
    </g>
</svg>